	<?xml version="1.0" encoding="UTF-8"?>
<svg width="71px" height="59px" viewBox="0 0 71 59" version="1.1" xmlns="http://www.w3.org/2000/svg" xmlns:xlink="http://www.w3.org/1999/xlink">
    <!-- Generator: Sketch 47.1 (45422) - http://www.bohemiancoding.com/sketch -->
    <title>no-image-available</title>
    <desc>Created with Sketch.</desc>
    <defs></defs>
    <!-- <g id="Page-1" stroke="none" stroke-width="1" fill="none" fill-rule="evenodd">
        <g id="no-image-available"> -->
            <path d="M6.012,51.528 L6.012,52.236 C5.448,52.284 4.86,52.344 4.248,52.404 L4.248,53.328 L3.456,53.328 L3.456,52.464 C2.664,52.512 1.824,52.572 0.96,52.62 L0.852,51.852 C1.764,51.804 2.64,51.768 3.456,51.72 L3.456,50.724 L1.224,50.724 L1.032,50.04 C1.368,49.656 1.692,49.2 1.98,48.66 L0.696,48.66 L0.696,47.892 L2.364,47.892 C2.472,47.628 2.58,47.364 2.676,47.1 L3.54,47.244 C3.456,47.46 3.372,47.676 3.276,47.892 L6.204,47.892 L6.204,48.66 L2.916,48.66 C2.652,49.164 2.364,49.62 2.064,50.016 L3.456,50.016 L3.456,49.224 L4.248,49.224 L4.248,50.016 L6.12,50.016 L6.12,50.724 L4.248,50.724 L4.248,51.672 C4.872,51.624 5.46,51.576 6.012,51.528 Z M7.692,50.736 C7.56,51.744 7.236,52.62 6.72,53.364 L6.12,52.74 C6.648,51.96 6.936,51.036 6.96,49.956 L6.96,48.072 C8.448,47.928 9.624,47.664 10.464,47.28 L11.016,47.928 C10.128,48.312 9.048,48.588 7.752,48.732 L7.752,49.98 L11.352,49.98 L11.352,50.736 L10.08,50.736 L10.08,53.34 L9.252,53.34 L9.252,50.736 L7.692,50.736 Z M10.008,53.688 L10.008,58.2 L9.12,58.2 L9.12,57.732 L3.024,57.732 L3.024,58.2 L2.136,58.2 L2.136,53.688 L10.008,53.688 Z M3.024,56.988 L9.12,56.988 L9.12,56.052 L3.024,56.052 L3.024,56.988 Z M3.024,55.356 L9.12,55.356 L9.12,54.42 L3.024,54.42 L3.024,55.356 Z M13.596,47.844 L13.596,48.684 L17.04,48.684 L17.04,49.488 C17.028,50.232 16.98,50.94 16.884,51.588 L12.792,51.588 L12.792,52.416 L16.74,52.416 C16.584,53.172 16.368,53.856 16.08,54.456 C15.432,55.68 14.292,56.652 12.636,57.396 L13.116,58.164 C14.784,57.444 15.984,56.424 16.728,55.128 C17.136,54.36 17.436,53.46 17.628,52.416 L18.6,52.416 L18.6,56.784 C18.6,57.6 18.984,58.008 19.776,58.008 L21.72,58.008 C22.224,58.008 22.584,57.9 22.812,57.684 C23.076,57.42 23.256,56.712 23.352,55.536 L22.536,55.272 C22.476,56.208 22.368,56.76 22.2,56.952 C22.068,57.108 21.852,57.192 21.564,57.192 L20.04,57.192 C19.656,57.192 19.464,56.988 19.464,56.604 L19.464,52.416 L23.184,52.416 L23.184,51.588 L17.76,51.588 C17.844,50.94 17.892,50.232 17.916,49.488 L17.916,48.684 L22.212,48.684 L22.212,47.844 L13.596,47.844 Z M25.932,47.424 L25.332,47.988 C26.148,48.624 26.784,49.224 27.252,49.8 L27.84,49.2 C27.324,48.612 26.688,48.024 25.932,47.424 Z M24.54,50.892 L27.048,50.892 L27.048,56.22 C27.48,55.86 27.948,55.452 28.44,54.984 L28.68,55.896 C27.924,56.604 27.12,57.228 26.28,57.78 L25.944,57.012 C26.112,56.844 26.208,56.664 26.208,56.472 L26.208,51.72 L24.54,51.72 L24.54,50.892 Z M28.8,52.296 L34.512,52.296 L34.512,53.088 C34.128,54.216 33.504,55.188 32.628,56.004 C33.444,56.568 34.44,57.06 35.616,57.492 L35.148,58.236 C33.9,57.732 32.844,57.168 32.004,56.52 C31.044,57.24 29.856,57.804 28.452,58.236 L27.972,57.504 C29.304,57.108 30.42,56.592 31.32,55.956 C30.408,55.116 29.796,54.18 29.46,53.136 L28.8,53.136 L28.8,52.296 Z M30.276,53.136 C30.588,54 31.14,54.78 31.932,55.464 C32.7,54.792 33.276,54.024 33.66,53.136 L30.276,53.136 Z M29.724,47.664 L33.756,47.664 L33.756,50.256 C33.756,50.556 33.912,50.712 34.224,50.712 L35.328,50.712 L35.328,51.504 L34.008,51.504 C33.264,51.504 32.904,51.144 32.904,50.436 L32.904,48.48 L30.576,48.48 L30.576,48.9 C30.576,50.172 29.952,51.156 28.728,51.852 L28.152,51.192 C29.196,50.676 29.724,49.944 29.724,48.996 L29.724,47.664 Z M45.792,52.968 L45.792,58.2 L44.964,58.2 L44.964,57.672 L39.06,57.672 L39.06,58.2 L38.232,58.2 L38.232,52.968 L45.792,52.968 Z M39.06,56.928 L41.592,56.928 L41.592,55.656 L39.06,55.656 L39.06,56.928 Z M42.408,56.928 L44.964,56.928 L44.964,55.656 L42.408,55.656 L42.408,56.928 Z M39.06,54.96 L41.592,54.96 L41.592,53.688 L39.06,53.688 L39.06,54.96 Z M42.408,53.688 L42.408,54.96 L44.964,54.96 L44.964,53.688 L42.408,53.688 Z M40.404,47.052 L41.256,47.244 C41.076,47.532 40.884,47.796 40.692,48.048 L45.576,48.048 L45.576,48.708 C44.832,49.62 43.932,50.388 42.876,51.036 C44.172,51.588 45.696,51.972 47.472,52.212 L47.1,52.98 C45.132,52.68 43.452,52.188 42.06,51.492 C40.596,52.224 38.868,52.752 36.888,53.076 L36.516,52.32 C38.316,52.068 39.876,51.636 41.22,51.036 C40.5,50.604 39.864,50.1 39.312,49.536 C38.784,50.016 38.22,50.436 37.62,50.82 L37.068,50.148 C38.412,49.368 39.528,48.336 40.404,47.052 Z M39.828,49.044 C40.428,49.656 41.16,50.184 42.024,50.64 C42.984,50.112 43.812,49.5 44.508,48.804 L40.068,48.804 L39.828,49.044 Z M52.848,48.756 L53.616,48.852 C53.52,49.08 53.424,49.296 53.304,49.512 L56.472,49.512 L56.472,50.112 C56.136,50.748 55.632,51.312 54.948,51.792 C55.752,52.176 56.664,52.5 57.696,52.74 L57.24,53.388 C56.076,53.076 55.08,52.692 54.24,52.224 C53.316,52.716 52.176,53.112 50.808,53.412 L50.424,52.716 C51.66,52.5 52.704,52.188 53.544,51.792 C53.076,51.48 52.668,51.144 52.332,50.784 C51.972,51.12 51.564,51.432 51.108,51.72 L50.628,51.096 C51.72,50.448 52.464,49.668 52.848,48.756 Z M54.24,51.42 C54.828,51.06 55.284,50.64 55.608,50.16 L52.884,50.16 C52.836,50.208 52.8,50.256 52.776,50.304 C53.196,50.712 53.688,51.084 54.24,51.42 Z M51.864,54.648 C53.46,54.948 54.996,55.38 56.46,55.932 L56.172,56.628 C54.684,56.052 53.136,55.608 51.528,55.296 L51.864,54.648 Z M53.112,52.968 C54.048,53.28 54.912,53.664 55.692,54.096 L55.284,54.72 C54.456,54.216 53.604,53.832 52.716,53.544 L53.112,52.968 Z M58.896,47.724 L58.896,58.2 L58.056,58.2 L58.056,57.708 L49.944,57.708 L49.944,58.2 L49.104,58.2 L49.104,47.724 L58.896,47.724 Z M49.944,56.94 L58.056,56.94 L58.056,48.492 L49.944,48.492 L49.944,56.94 Z M63.72,51.216 L70.788,51.216 L70.788,50.388 L68.088,50.388 L68.088,47.196 L67.236,47.196 L67.236,50.388 L63.72,50.388 L63.72,47.532 L62.844,47.532 L62.844,51.936 C62.82,54.528 62.184,56.424 60.924,57.612 L61.584,58.188 C62.604,57.228 63.264,55.836 63.552,54.036 L68.376,54.036 L68.376,58.224 L69.24,58.224 L69.24,53.196 L63.66,53.196 C63.684,52.8 63.708,52.38 63.72,51.936 L63.72,51.216 Z" id="暂无设备图片" fill="#6D6D6D"></path>
            <path d="M30.9777791,15.1501863 C29.7306118,16.3975566 29.0434783,18.0567445 29.0434783,19.8245145 C29.0434783,21.5922845 29.7292879,23.2501482 30.9738072,24.4961944 C30.9751312,24.4975185 30.9751312,24.4988427 30.9764551,24.5001669 C30.9777791,24.5014911 30.979103,24.5014911 30.980427,24.5028152 C32.2275943,25.7488614 33.8865121,26.4347826 35.6526704,26.4347826 C35.6526704,26.4347826 35.6526704,26.4347826 35.6526704,26.4347826 C37.4201527,26.4347826 39.0803944,25.7475372 40.3275617,24.5001669 C42.9053055,21.9220034 42.9053055,17.7283498 40.3275617,15.1488621 C37.7484939,12.573347 33.552875,12.573347 30.9777791,15.1501863 Z M31.9138165,16.0863761 C32.9438549,15.0561701 34.2982626,14.5410671 35.6526704,14.5410671 C36.7952451,14.5410671 37.9272281,14.9303737 38.8751811,15.6652893 L31.4914743,23.0501982 C30.7752137,22.1285743 30.367435,21.0136212 30.367435,19.8245145 C30.367435,18.4116227 30.9168771,17.0834779 31.9138165,16.0863761 Z M39.3915243,23.5653012 C38.3945848,24.562403 37.0666562,25.1119345 35.6526704,25.1119345 C34.4637572,25.1119345 33.3489856,24.7040894 32.4275117,23.9877122 L39.8112186,16.6028033 C41.4171781,18.6738088 41.2914022,21.6637898 39.3915243,23.5653012 Z" id="Shape" fill="#717070" fill-rule="nonzero"></path>
            <path d="M50.0493333,7.77356269 L42.2413333,7.77356269 L37.996,3.37940026 C38.172,3.05370736 38.2813333,2.68629348 38.2813333,2.29061698 C38.2813333,1.02822055 37.2626667,0 36.012,0 C34.7613333,0 33.7426667,1.02822055 33.7426667,2.29061698 C33.7426667,2.68763932 33.852,3.0550532 34.028,3.37940026 L29.784,7.77356269 L21.976,7.77356269 C20.924,7.77356269 20,8.72237877 20,9.80308702 L20,30.0727594 C20,31.1346259 20.8866667,32 21.9746667,32 L50.0493333,32 C51.1253333,32 52,31.1346259 52,30.0727594 L52,9.80308702 C52,8.72237877 51.0893333,7.77356269 50.0493333,7.77356269 Z M36.012,4.58123397 C36.384,4.58123397 36.7306667,4.48164192 37.0413333,4.32014131 L40.3786667,7.77356269 L31.6466667,7.77356269 L34.9826667,4.32014131 C35.2933333,4.48164192 35.64,4.58123397 36.012,4.58123397 Z M36.012,1.34583842 C36.528,1.34583842 36.948,1.76977752 36.948,2.29061698 C36.948,2.81145645 36.528,3.23539555 36.012,3.23539555 C35.496,3.23539555 35.076,2.81145645 35.076,2.29061698 C35.076,1.76977752 35.496,1.34583842 36.012,1.34583842 Z M50.6666667,30.0714136 C50.6666667,30.3863397 50.384,30.6528157 50.0493333,30.6528157 L21.976,30.6528157 C21.6346667,30.6528157 21.3346667,30.3809564 21.3346667,30.0714136 L21.3346667,9.80308702 C21.3333333,9.46393574 21.6573333,9.1194011 21.976,9.1194011 L30.0653333,9.1194011 L41.96,9.1194011 L50.0493333,9.1194011 C50.36,9.1194011 50.6666667,9.45720654 50.6666667,9.80174118 L50.6666667,30.0714136 Z" id="Shape" fill="#717070" fill-rule="nonzero"></path>
        <!-- </g>
    </g> -->
</svg>